<svg width="111" height="23" viewBox="0 0 111 23" fill="none" xmlns="http://www.w3.org/2000/svg">
<path fill-rule="evenodd" clip-rule="evenodd" d="M16.103 15.0779C13.4045 15.899 9.71628 18.4377 7.00446 19.5828C5.01165 20.4217 2.79692 20.1332 2.10898 18.3934C1.47873 16.8044 2.63714 14.1326 2.79248 12.4282C2.06903 11.8779 1.84712 11.3897 1.28789 10.9947C0.684273 12.2685 -0.172325 16.689 0.0895363 18.2114C0.502301 20.617 2.40634 22.3257 5.17142 22.197C7.99864 22.0683 13.1604 17.8741 15.4595 15.7703C15.5349 15.6993 15.7169 15.5351 15.7835 15.4596C16.032 15.1978 15.8944 15.3842 16.103 15.0779Z" fill="url(#paint0_linear_22_3)"/>
<path fill-rule="evenodd" clip-rule="evenodd" d="M5.91706 7.13776C7.49267 6.68949 12.7965 3.56934 15.0112 2.63285C17.044 1.77181 19.201 2.19789 19.8845 3.82676C20.568 5.46007 19.383 8.04318 19.2143 9.76525C19.92 10.3289 20.1597 10.7861 20.6967 11.2255C21.358 10.0227 22.1702 5.50001 21.9084 3.9821C21.5045 1.65198 19.6359 -0.110038 16.8309 0.00535833C14.0747 0.116317 8.81086 4.35936 6.54287 6.44094C6.46742 6.51195 6.28988 6.67617 6.21887 6.75606C5.97032 7.0268 6.12123 6.80932 5.90819 7.13776H5.91706Z" fill="url(#paint1_linear_22_3)"/>
<path fill-rule="evenodd" clip-rule="evenodd" d="M12.1751 19.3254C11.7801 19.7604 11.1099 20.3418 10.8303 20.7634C12.2284 21.4381 16.68 22.268 18.3799 21.8952C20.6168 21.4026 22.2412 19.3432 21.9705 16.5914C21.7131 13.955 18.6906 10.4709 16.9685 8.35386C16.2717 7.49726 15.5971 6.53414 14.8115 5.86396C15.9521 9.88508 22.9514 17.9628 18.2068 19.9202C16.3826 20.6747 13.9593 19.2544 12.1751 19.321V19.3254Z" fill="url(#paint2_linear_22_3)"/>
<path fill-rule="evenodd" clip-rule="evenodd" d="M7.19974 16.3429C5.93038 12.0998 -0.931283 4.26616 3.80442 2.28666C5.78391 1.45669 7.87437 2.98792 9.84942 2.87252L11.1632 1.44338C9.72515 0.777627 5.3312 -0.0567797 3.62688 0.320479C1.41216 0.813133 -0.234465 2.86808 0.0273966 5.60209C0.293696 8.36717 3.29845 11.7181 5.0294 13.8485C5.73953 14.7229 6.3609 15.6682 7.19974 16.3473V16.3429Z" fill="url(#paint3_linear_22_3)"/>
<path d="M11.172 13.378C12.508 13.378 13.5909 12.2951 13.5909 10.9592C13.5909 9.62324 12.508 8.54027 11.172 8.54027C9.83613 8.54027 8.75316 9.62324 8.75316 10.9592C8.75316 12.2951 9.83613 13.378 11.172 13.378Z" fill="url(#paint4_radial_22_3)"/>
<path d="M31.755 14.26C32.345 14.26 32.805 14.155 33.135 13.945C33.465 13.725 33.63 13.42 33.63 13.03C33.63 12.75 33.525 12.52 33.315 12.34C33.105 12.16 32.83 12.02 32.49 11.92C32.16 11.82 31.79 11.73 31.38 11.65C30.98 11.56 30.575 11.45 30.165 11.32C29.765 11.18 29.395 11.005 29.055 10.795C28.725 10.575 28.455 10.265 28.245 9.865C28.035 9.455 27.93 8.97 27.93 8.41C27.93 7.48 28.28 6.7 28.98 6.07C29.68 5.44 30.625 5.125 31.815 5.125C33.015 5.125 33.965 5.465 34.665 6.145C35.375 6.825 35.745 7.67 35.775 8.68H33.63C33.61 8.2 33.435 7.815 33.105 7.525C32.785 7.225 32.345 7.075 31.785 7.075C31.275 7.075 30.865 7.19 30.555 7.42C30.245 7.64 30.09 7.925 30.09 8.275C30.09 8.565 30.195 8.8 30.405 8.98C30.615 9.16 30.89 9.3 31.23 9.4C31.57 9.5 31.945 9.595 32.355 9.685C32.765 9.765 33.175 9.875 33.585 10.015C33.995 10.155 34.37 10.335 34.71 10.555C35.05 10.765 35.325 11.075 35.535 11.485C35.745 11.895 35.85 12.385 35.85 12.955C35.85 13.915 35.46 14.7 34.68 15.31C33.91 15.91 32.895 16.21 31.635 16.21C30.925 16.21 30.3 16.11 29.76 15.91C29.22 15.7 28.795 15.42 28.485 15.07C28.175 14.72 27.94 14.34 27.78 13.93C27.63 13.52 27.545 13.085 27.525 12.625H29.685C29.715 13.095 29.905 13.485 30.255 13.795C30.605 14.105 31.105 14.26 31.755 14.26ZM42.4315 12.61V8.14H44.5615V16H42.5965V15.04C42.1865 15.8 41.4165 16.18 40.2865 16.18C39.3665 16.18 38.6565 15.9 38.1565 15.34C37.6665 14.77 37.4215 14.005 37.4215 13.045V8.14H39.5515V12.805C39.5515 13.835 39.9865 14.35 40.8565 14.35C41.3765 14.35 41.7665 14.2 42.0265 13.9C42.2965 13.6 42.4315 13.17 42.4315 12.61ZM48.6353 8.98C48.8553 8.69 49.1653 8.45 49.5653 8.26C49.9753 8.06 50.4403 7.96 50.9603 7.96C52.0703 7.96 52.9503 8.35 53.6003 9.13C54.2503 9.91 54.5753 10.89 54.5753 12.07C54.5753 13.25 54.2503 14.23 53.6003 15.01C52.9503 15.79 52.0703 16.18 50.9603 16.18C49.8203 16.18 48.9903 15.8 48.4703 15.04V16H46.5053V4.75H48.6353V8.98ZM49.1003 10.465C48.7503 10.885 48.5753 11.42 48.5753 12.07C48.5753 12.72 48.7503 13.255 49.1003 13.675C49.4603 14.095 49.9303 14.305 50.5103 14.305C51.0903 14.305 51.5553 14.095 51.9053 13.675C52.2653 13.255 52.4453 12.72 52.4453 12.07C52.4453 11.42 52.2653 10.885 51.9053 10.465C51.5553 10.045 51.0903 9.835 50.5103 9.835C49.9303 9.835 49.4603 10.045 49.1003 10.465ZM63.0318 5.35H65.4318L61.3968 16H59.1468L55.1118 5.35H57.5718L60.2868 13.09H60.3168L63.0318 5.35ZM72.9708 12.685H67.2708C67.3408 13.225 67.5408 13.64 67.8708 13.93C68.2008 14.21 68.6358 14.35 69.1758 14.35C69.5158 14.35 69.8208 14.28 70.0908 14.14C70.3708 13.99 70.5708 13.775 70.6908 13.495H72.8358C72.6058 14.295 72.1508 14.945 71.4708 15.445C70.8008 15.935 70.0158 16.18 69.1158 16.18C67.9558 16.18 67.0058 15.795 66.2658 15.025C65.5258 14.255 65.1558 13.265 65.1558 12.055C65.1558 10.885 65.5258 9.91 66.2658 9.13C67.0058 8.35 67.9508 7.96 69.1008 7.96C70.2508 7.96 71.1858 8.35 71.9058 9.13C72.6358 9.9 73.0008 10.875 73.0008 12.055L72.9708 12.685ZM69.0858 9.67C68.6058 9.67 68.2108 9.805 67.9008 10.075C67.5908 10.335 67.3908 10.695 67.3008 11.155H70.8708C70.7908 10.705 70.5958 10.345 70.2858 10.075C69.9758 9.805 69.5758 9.67 69.0858 9.67ZM78.8798 8.08V10.075C78.7298 10.045 78.5898 10.03 78.4598 10.03C77.8298 10.03 77.3548 10.195 77.0348 10.525C76.7248 10.855 76.5698 11.375 76.5698 12.085V16H74.4398V8.14H76.4048V9.16C76.8548 8.43 77.5948 8.065 78.6248 8.065L78.8798 8.08ZM82.7523 16.18C80.6123 16.18 79.4773 15.27 79.3473 13.45H81.5073C81.5273 13.74 81.6423 13.985 81.8523 14.185C82.0723 14.375 82.3923 14.47 82.8123 14.47C83.2123 14.47 83.5173 14.405 83.7273 14.275C83.9373 14.145 84.0423 13.97 84.0423 13.75C84.0423 13.51 83.8923 13.335 83.5923 13.225C83.2923 13.105 82.9273 13.01 82.4973 12.94C82.0773 12.87 81.6523 12.775 81.2223 12.655C80.7923 12.535 80.4273 12.3 80.1273 11.95C79.8273 11.6 79.6773 11.135 79.6773 10.555C79.6773 9.825 79.9673 9.21 80.5473 8.71C81.1273 8.21 81.8873 7.96 82.8273 7.96C83.8973 7.96 84.6923 8.23 85.2123 8.77C85.7323 9.31 86.0123 9.925 86.0523 10.615H83.9973C83.9773 10.345 83.8623 10.12 83.6523 9.94C83.4523 9.76 83.1723 9.67 82.8123 9.67C82.4723 9.67 82.2073 9.745 82.0173 9.895C81.8273 10.035 81.7323 10.215 81.7323 10.435C81.7323 10.675 81.8823 10.85 82.1823 10.96C82.4823 11.07 82.8423 11.16 83.2623 11.23C83.6923 11.29 84.1173 11.38 84.5373 11.5C84.9673 11.62 85.3323 11.86 85.6323 12.22C85.9323 12.58 86.0823 13.06 86.0823 13.66C86.0823 14.39 85.7823 14.995 85.1823 15.475C84.5923 15.945 83.7823 16.18 82.7523 16.18ZM94.797 12.685H89.097C89.167 13.225 89.367 13.64 89.697 13.93C90.027 14.21 90.462 14.35 91.002 14.35C91.342 14.35 91.647 14.28 91.917 14.14C92.197 13.99 92.397 13.775 92.517 13.495H94.662C94.432 14.295 93.977 14.945 93.297 15.445C92.627 15.935 91.842 16.18 90.942 16.18C89.782 16.18 88.832 15.795 88.092 15.025C87.352 14.255 86.982 13.265 86.982 12.055C86.982 10.885 87.352 9.91 88.092 9.13C88.832 8.35 89.777 7.96 90.927 7.96C92.077 7.96 93.012 8.35 93.732 9.13C94.462 9.9 94.827 10.875 94.827 12.055L94.797 12.685ZM90.912 9.67C90.432 9.67 90.037 9.805 89.727 10.075C89.417 10.335 89.217 10.695 89.127 11.155H92.697C92.617 10.705 92.422 10.345 92.112 10.075C91.802 9.805 91.402 9.67 90.912 9.67ZM97.556 16H95.261L99.266 5.35H101.576L105.581 16H103.226L102.581 14.17H98.201L97.556 16ZM100.406 8.05H100.376L98.906 12.205H101.876L100.406 8.05ZM106.1 7.15V5.35H110.24V7.15H109.265V14.2H110.24V16H106.1V14.2H107.075V7.15H106.1Z" fill="#02F3FB"/>
<defs>
<linearGradient id="paint0_linear_22_3" x1="1.23463" y1="14.7894" x2="9.268" y2="16.942" gradientUnits="userSpaceOnUse">
<stop stop-color="#11A5F9"/>
<stop offset="0.431373" stop-color="#09CDFA"/>
<stop offset="1" stop-color="#01F6FB"/>
</linearGradient>
<linearGradient id="paint1_linear_22_3" x1="20.75" y1="4.51914" x2="14.0081" y2="4.51914" gradientUnits="userSpaceOnUse">
<stop stop-color="#129FF9"/>
<stop offset="0.301961" stop-color="#0ACAFA"/>
<stop offset="1" stop-color="#01F6FB"/>
</linearGradient>
<linearGradient id="paint2_linear_22_3" x1="18.2467" y1="21.225" x2="21.8285" y2="15.0202" gradientUnits="userSpaceOnUse">
<stop stop-color="#139CF9"/>
<stop offset="0.321569" stop-color="#0AC9FA"/>
<stop offset="1" stop-color="#01F6FB"/>
</linearGradient>
<linearGradient id="paint3_linear_22_3" x1="5.6552" y1="-1.16636" x2="5.6552" y2="10.9103" gradientUnits="userSpaceOnUse">
<stop stop-color="#1786F9"/>
<stop offset="1" stop-color="#01F6FB"/>
</linearGradient>
<radialGradient id="paint4_radial_22_3" cx="0" cy="0" r="1" gradientUnits="userSpaceOnUse" gradientTransform="translate(11.3845 11.1413) rotate(30.001) scale(2.87191 2.89309)">
<stop stop-color="#01F6FB"/>
<stop offset="0.788235" stop-color="#0AC8FA"/>
<stop offset="1" stop-color="#139BF9"/>
</radialGradient>
</defs>
</svg>
