<svg width="129" height="37" viewBox="0 0 129 37" fill="none" xmlns="http://www.w3.org/2000/svg">
<rect width="129" height="37" rx="13" fill="#010101"/>
<path fill-rule="evenodd" clip-rule="evenodd" d="M26.103 23.0779C23.4045 23.899 19.7163 26.4377 17.0045 27.5828C15.0116 28.4217 12.7969 28.1332 12.109 26.3934C11.4787 24.8044 12.6371 22.1326 12.7925 20.4282C12.069 19.8779 11.8471 19.3897 11.2879 18.9947C10.6843 20.2685 9.82767 24.689 10.0895 26.2114C10.5023 28.617 12.4063 30.3257 15.1714 30.197C17.9986 30.0683 23.1604 25.8741 25.4595 23.7703C25.5349 23.6993 25.7169 23.5351 25.7835 23.4596C26.032 23.1978 25.8944 23.3842 26.103 23.0779Z" fill="url(#paint0_linear_22_2)"/>
<path fill-rule="evenodd" clip-rule="evenodd" d="M15.9171 15.1378C17.4927 14.6895 22.7965 11.5693 25.0112 10.6329C27.044 9.77181 29.201 10.1979 29.8845 11.8268C30.568 13.4601 29.383 16.0432 29.2143 17.7652C29.92 18.3289 30.1597 18.7861 30.6967 19.2255C31.358 18.0227 32.1702 13.5 31.9084 11.9821C31.5045 9.65198 29.6359 7.88996 26.8309 8.00536C24.0747 8.11632 18.8109 12.3594 16.5429 14.4409C16.4674 14.512 16.2899 14.6762 16.2189 14.7561C15.9703 15.0268 16.1212 14.8093 15.9082 15.1378H15.9171Z" fill="url(#paint1_linear_22_2)"/>
<path fill-rule="evenodd" clip-rule="evenodd" d="M22.1751 27.3254C21.7801 27.7604 21.1099 28.3418 20.8303 28.7634C22.2284 29.4381 26.68 30.268 28.3799 29.8952C30.6168 29.4026 32.2412 27.3432 31.9705 24.5914C31.7131 21.955 28.6906 18.4709 26.9685 16.3539C26.2717 15.4973 25.5971 14.5341 24.8115 13.864C25.9521 17.8851 32.9514 25.9628 28.2068 27.9202C26.3826 28.6747 23.9593 27.2544 22.1751 27.321V27.3254Z" fill="url(#paint2_linear_22_2)"/>
<path fill-rule="evenodd" clip-rule="evenodd" d="M17.1997 24.3429C15.9304 20.0998 9.06872 12.2662 13.8044 10.2867C15.7839 9.45669 17.8744 10.9879 19.8494 10.8725L21.1632 9.44338C19.7252 8.77763 15.3312 7.94322 13.6269 8.32048C11.4122 8.81313 9.76554 10.8681 10.0274 13.6021C10.2937 16.3672 13.2984 19.7181 15.0294 21.8485C15.7395 22.7229 16.3609 23.6682 17.1997 24.3473V24.3429Z" fill="url(#paint3_linear_22_2)"/>
<path d="M21.172 21.378C22.508 21.378 23.5909 20.2951 23.5909 18.9592C23.5909 17.6232 22.508 16.5403 21.172 16.5403C19.8361 16.5403 18.7532 17.6232 18.7532 18.9592C18.7532 20.2951 19.8361 21.378 21.172 21.378Z" fill="url(#paint4_radial_22_2)"/>
<path d="M41.755 22.26C42.345 22.26 42.805 22.155 43.135 21.945C43.465 21.725 43.63 21.42 43.63 21.03C43.63 20.75 43.525 20.52 43.315 20.34C43.105 20.16 42.83 20.02 42.49 19.92C42.16 19.82 41.79 19.73 41.38 19.65C40.98 19.56 40.575 19.45 40.165 19.32C39.765 19.18 39.395 19.005 39.055 18.795C38.725 18.575 38.455 18.265 38.245 17.865C38.035 17.455 37.93 16.97 37.93 16.41C37.93 15.48 38.28 14.7 38.98 14.07C39.68 13.44 40.625 13.125 41.815 13.125C43.015 13.125 43.965 13.465 44.665 14.145C45.375 14.825 45.745 15.67 45.775 16.68H43.63C43.61 16.2 43.435 15.815 43.105 15.525C42.785 15.225 42.345 15.075 41.785 15.075C41.275 15.075 40.865 15.19 40.555 15.42C40.245 15.64 40.09 15.925 40.09 16.275C40.09 16.565 40.195 16.8 40.405 16.98C40.615 17.16 40.89 17.3 41.23 17.4C41.57 17.5 41.945 17.595 42.355 17.685C42.765 17.765 43.175 17.875 43.585 18.015C43.995 18.155 44.37 18.335 44.71 18.555C45.05 18.765 45.325 19.075 45.535 19.485C45.745 19.895 45.85 20.385 45.85 20.955C45.85 21.915 45.46 22.7 44.68 23.31C43.91 23.91 42.895 24.21 41.635 24.21C40.925 24.21 40.3 24.11 39.76 23.91C39.22 23.7 38.795 23.42 38.485 23.07C38.175 22.72 37.94 22.34 37.78 21.93C37.63 21.52 37.545 21.085 37.525 20.625H39.685C39.715 21.095 39.905 21.485 40.255 21.795C40.605 22.105 41.105 22.26 41.755 22.26ZM52.4315 20.61V16.14H54.5615V24H52.5965V23.04C52.1865 23.8 51.4165 24.18 50.2865 24.18C49.3665 24.18 48.6565 23.9 48.1565 23.34C47.6665 22.77 47.4215 22.005 47.4215 21.045V16.14H49.5515V20.805C49.5515 21.835 49.9865 22.35 50.8565 22.35C51.3765 22.35 51.7665 22.2 52.0265 21.9C52.2965 21.6 52.4315 21.17 52.4315 20.61ZM58.6353 16.98C58.8553 16.69 59.1653 16.45 59.5653 16.26C59.9753 16.06 60.4403 15.96 60.9603 15.96C62.0703 15.96 62.9503 16.35 63.6003 17.13C64.2503 17.91 64.5753 18.89 64.5753 20.07C64.5753 21.25 64.2503 22.23 63.6003 23.01C62.9503 23.79 62.0703 24.18 60.9603 24.18C59.8203 24.18 58.9903 23.8 58.4703 23.04V24H56.5053V12.75H58.6353V16.98ZM59.1003 18.465C58.7503 18.885 58.5753 19.42 58.5753 20.07C58.5753 20.72 58.7503 21.255 59.1003 21.675C59.4603 22.095 59.9303 22.305 60.5103 22.305C61.0903 22.305 61.5553 22.095 61.9053 21.675C62.2653 21.255 62.4453 20.72 62.4453 20.07C62.4453 19.42 62.2653 18.885 61.9053 18.465C61.5553 18.045 61.0903 17.835 60.5103 17.835C59.9303 17.835 59.4603 18.045 59.1003 18.465ZM73.0318 13.35H75.4318L71.3968 24H69.1468L65.1118 13.35H67.5718L70.2868 21.09H70.3168L73.0318 13.35ZM82.9708 20.685H77.2708C77.3408 21.225 77.5408 21.64 77.8708 21.93C78.2008 22.21 78.6358 22.35 79.1758 22.35C79.5158 22.35 79.8208 22.28 80.0908 22.14C80.3708 21.99 80.5708 21.775 80.6908 21.495H82.8358C82.6058 22.295 82.1508 22.945 81.4708 23.445C80.8008 23.935 80.0158 24.18 79.1158 24.18C77.9558 24.18 77.0058 23.795 76.2658 23.025C75.5258 22.255 75.1558 21.265 75.1558 20.055C75.1558 18.885 75.5258 17.91 76.2658 17.13C77.0058 16.35 77.9508 15.96 79.1008 15.96C80.2508 15.96 81.1858 16.35 81.9058 17.13C82.6358 17.9 83.0008 18.875 83.0008 20.055L82.9708 20.685ZM79.0858 17.67C78.6058 17.67 78.2108 17.805 77.9008 18.075C77.5908 18.335 77.3908 18.695 77.3008 19.155H80.8708C80.7908 18.705 80.5958 18.345 80.2858 18.075C79.9758 17.805 79.5758 17.67 79.0858 17.67ZM88.8798 16.08V18.075C88.7298 18.045 88.5898 18.03 88.4598 18.03C87.8298 18.03 87.3548 18.195 87.0348 18.525C86.7248 18.855 86.5698 19.375 86.5698 20.085V24H84.4398V16.14H86.4048V17.16C86.8548 16.43 87.5948 16.065 88.6248 16.065L88.8798 16.08ZM92.7523 24.18C90.6123 24.18 89.4773 23.27 89.3473 21.45H91.5073C91.5273 21.74 91.6423 21.985 91.8523 22.185C92.0723 22.375 92.3923 22.47 92.8123 22.47C93.2123 22.47 93.5173 22.405 93.7273 22.275C93.9373 22.145 94.0423 21.97 94.0423 21.75C94.0423 21.51 93.8923 21.335 93.5923 21.225C93.2923 21.105 92.9273 21.01 92.4973 20.94C92.0773 20.87 91.6523 20.775 91.2223 20.655C90.7923 20.535 90.4273 20.3 90.1273 19.95C89.8273 19.6 89.6773 19.135 89.6773 18.555C89.6773 17.825 89.9673 17.21 90.5473 16.71C91.1273 16.21 91.8873 15.96 92.8273 15.96C93.8973 15.96 94.6923 16.23 95.2123 16.77C95.7323 17.31 96.0123 17.925 96.0523 18.615H93.9973C93.9773 18.345 93.8623 18.12 93.6523 17.94C93.4523 17.76 93.1723 17.67 92.8123 17.67C92.4723 17.67 92.2073 17.745 92.0173 17.895C91.8273 18.035 91.7323 18.215 91.7323 18.435C91.7323 18.675 91.8823 18.85 92.1823 18.96C92.4823 19.07 92.8423 19.16 93.2623 19.23C93.6923 19.29 94.1173 19.38 94.5373 19.5C94.9673 19.62 95.3323 19.86 95.6323 20.22C95.9323 20.58 96.0823 21.06 96.0823 21.66C96.0823 22.39 95.7823 22.995 95.1823 23.475C94.5923 23.945 93.7823 24.18 92.7523 24.18ZM104.797 20.685H99.097C99.167 21.225 99.367 21.64 99.697 21.93C100.027 22.21 100.462 22.35 101.002 22.35C101.342 22.35 101.647 22.28 101.917 22.14C102.197 21.99 102.397 21.775 102.517 21.495H104.662C104.432 22.295 103.977 22.945 103.297 23.445C102.627 23.935 101.842 24.18 100.942 24.18C99.782 24.18 98.832 23.795 98.092 23.025C97.352 22.255 96.982 21.265 96.982 20.055C96.982 18.885 97.352 17.91 98.092 17.13C98.832 16.35 99.777 15.96 100.927 15.96C102.077 15.96 103.012 16.35 103.732 17.13C104.462 17.9 104.827 18.875 104.827 20.055L104.797 20.685ZM100.912 17.67C100.432 17.67 100.037 17.805 99.727 18.075C99.417 18.335 99.217 18.695 99.127 19.155H102.697C102.617 18.705 102.422 18.345 102.112 18.075C101.802 17.805 101.402 17.67 100.912 17.67ZM107.556 24H105.261L109.266 13.35H111.576L115.581 24H113.226L112.581 22.17H108.201L107.556 24ZM110.406 16.05H110.376L108.906 20.205H111.876L110.406 16.05ZM116.1 15.15V13.35H120.24V15.15H119.265V22.2H120.24V24H116.1V22.2H117.075V15.15H116.1Z" fill="#02F3FB"/>
<defs>
<linearGradient id="paint0_linear_22_2" x1="11.2346" y1="22.7894" x2="19.268" y2="24.942" gradientUnits="userSpaceOnUse">
<stop stop-color="#11A5F9"/>
<stop offset="0.431373" stop-color="#09CDFA"/>
<stop offset="1" stop-color="#01F6FB"/>
</linearGradient>
<linearGradient id="paint1_linear_22_2" x1="30.75" y1="12.5191" x2="24.0081" y2="12.5191" gradientUnits="userSpaceOnUse">
<stop stop-color="#129FF9"/>
<stop offset="0.301961" stop-color="#0ACAFA"/>
<stop offset="1" stop-color="#01F6FB"/>
</linearGradient>
<linearGradient id="paint2_linear_22_2" x1="28.2467" y1="29.225" x2="31.8285" y2="23.0202" gradientUnits="userSpaceOnUse">
<stop stop-color="#139CF9"/>
<stop offset="0.321569" stop-color="#0AC9FA"/>
<stop offset="1" stop-color="#01F6FB"/>
</linearGradient>
<linearGradient id="paint3_linear_22_2" x1="15.6552" y1="6.83364" x2="15.6552" y2="18.9103" gradientUnits="userSpaceOnUse">
<stop stop-color="#1786F9"/>
<stop offset="1" stop-color="#01F6FB"/>
</linearGradient>
<radialGradient id="paint4_radial_22_2" cx="0" cy="0" r="1" gradientUnits="userSpaceOnUse" gradientTransform="translate(21.3845 19.1413) rotate(30.001) scale(2.87191 2.89309)">
<stop stop-color="#01F6FB"/>
<stop offset="0.788235" stop-color="#0AC8FA"/>
<stop offset="1" stop-color="#139BF9"/>
</radialGradient>
</defs>
</svg>
